<mxfile host="app.diagrams.net" agent="Mozilla/5.0 (Macintosh; Intel Mac OS X 10_15_7) AppleWebKit/537.36 (KHTML, like Gecko) Chrome/127.0.0.0 Safari/537.36" version="24.7.6">
  <diagram name="Page-1" id="-4LfHM0-d0m1FhVdr_tB">
    <mxGraphModel dx="1434" dy="786" grid="1" gridSize="10" guides="1" tooltips="1" connect="1" arrows="1" fold="1" page="1" pageScale="1" pageWidth="850" pageHeight="1100" math="0" shadow="0">
      <root>
        <mxCell id="0" />
        <mxCell id="1" parent="0" />
        <mxCell id="y6Z1SUE2Pmp9UzVw0fYm-8" value="" style="edgeStyle=orthogonalEdgeStyle;rounded=0;orthogonalLoop=1;jettySize=auto;html=1;" edge="1" parent="1" source="y6Z1SUE2Pmp9UzVw0fYm-1" target="y6Z1SUE2Pmp9UzVw0fYm-7">
          <mxGeometry relative="1" as="geometry" />
        </mxCell>
        <mxCell id="y6Z1SUE2Pmp9UzVw0fYm-16" value="" style="edgeStyle=orthogonalEdgeStyle;rounded=0;orthogonalLoop=1;jettySize=auto;html=1;fillColor=#dae8fc;strokeColor=#6c8ebf;strokeWidth=2;" edge="1" parent="1" source="y6Z1SUE2Pmp9UzVw0fYm-1" target="y6Z1SUE2Pmp9UzVw0fYm-7">
          <mxGeometry relative="1" as="geometry" />
        </mxCell>
        <mxCell id="y6Z1SUE2Pmp9UzVw0fYm-1" value="Core BS" style="rounded=1;whiteSpace=wrap;html=1;fillColor=#dae8fc;strokeColor=#6c8ebf;" vertex="1" parent="1">
          <mxGeometry x="290" y="330" width="120" height="60" as="geometry" />
        </mxCell>
        <mxCell id="y6Z1SUE2Pmp9UzVw0fYm-3" style="edgeStyle=orthogonalEdgeStyle;rounded=0;orthogonalLoop=1;jettySize=auto;html=1;entryX=0;entryY=0.5;entryDx=0;entryDy=0;fillColor=#dae8fc;strokeColor=#6c8ebf;strokeWidth=2;" edge="1" parent="1" source="y6Z1SUE2Pmp9UzVw0fYm-2" target="y6Z1SUE2Pmp9UzVw0fYm-1">
          <mxGeometry relative="1" as="geometry" />
        </mxCell>
        <mxCell id="y6Z1SUE2Pmp9UzVw0fYm-4" value="eventTypes/digital.us.promo-optin.sms" style="edgeLabel;html=1;align=center;verticalAlign=middle;resizable=0;points=[];" vertex="1" connectable="0" parent="y6Z1SUE2Pmp9UzVw0fYm-3">
          <mxGeometry x="0.0235" y="4" relative="1" as="geometry">
            <mxPoint as="offset" />
          </mxGeometry>
        </mxCell>
        <mxCell id="y6Z1SUE2Pmp9UzVw0fYm-19" style="edgeStyle=orthogonalEdgeStyle;rounded=0;orthogonalLoop=1;jettySize=auto;html=1;exitX=1;exitY=0.75;exitDx=0;exitDy=0;fillColor=#ffe6cc;strokeColor=#d79b00;strokeWidth=2;" edge="1" parent="1" source="y6Z1SUE2Pmp9UzVw0fYm-2" target="y6Z1SUE2Pmp9UzVw0fYm-18">
          <mxGeometry relative="1" as="geometry" />
        </mxCell>
        <mxCell id="y6Z1SUE2Pmp9UzVw0fYm-2" value="Digital" style="rounded=1;whiteSpace=wrap;html=1;" vertex="1" parent="1">
          <mxGeometry x="80" y="490" width="120" height="60" as="geometry" />
        </mxCell>
        <mxCell id="y6Z1SUE2Pmp9UzVw0fYm-7" value="Kaleyra MultiStep&lt;div&gt;Program&lt;/div&gt;&lt;div&gt;&lt;br&gt;&lt;/div&gt;&lt;div&gt;Opt user into promo and send SMS or just send SMS saying you&#39;re already enrolled&lt;/div&gt;" style="rounded=1;whiteSpace=wrap;html=1;" vertex="1" parent="1">
          <mxGeometry x="510" y="275" width="120" height="170" as="geometry" />
        </mxCell>
        <mxCell id="y6Z1SUE2Pmp9UzVw0fYm-21" style="edgeStyle=orthogonalEdgeStyle;rounded=0;orthogonalLoop=1;jettySize=auto;html=1;entryX=0.5;entryY=0;entryDx=0;entryDy=0;fillColor=#dae8fc;strokeColor=#6c8ebf;strokeWidth=2;" edge="1" parent="1" source="y6Z1SUE2Pmp9UzVw0fYm-9" target="y6Z1SUE2Pmp9UzVw0fYm-18">
          <mxGeometry relative="1" as="geometry" />
        </mxCell>
        <mxCell id="y6Z1SUE2Pmp9UzVw0fYm-9" value="Kaleyra Opt Sync" style="rounded=1;whiteSpace=wrap;html=1;" vertex="1" parent="1">
          <mxGeometry x="700" y="450" width="120" height="60" as="geometry" />
        </mxCell>
        <mxCell id="y6Z1SUE2Pmp9UzVw0fYm-10" value="OneView" style="shape=cylinder3;whiteSpace=wrap;html=1;boundedLbl=1;backgroundOutline=1;size=15;" vertex="1" parent="1">
          <mxGeometry x="350" y="610" width="60" height="80" as="geometry" />
        </mxCell>
        <mxCell id="y6Z1SUE2Pmp9UzVw0fYm-12" style="edgeStyle=orthogonalEdgeStyle;rounded=0;orthogonalLoop=1;jettySize=auto;html=1;entryX=1;entryY=0.5;entryDx=0;entryDy=0;dashed=1;fillColor=#dae8fc;strokeColor=#6c8ebf;strokeWidth=2;" edge="1" parent="1" source="y6Z1SUE2Pmp9UzVw0fYm-11" target="y6Z1SUE2Pmp9UzVw0fYm-7">
          <mxGeometry relative="1" as="geometry" />
        </mxCell>
        <mxCell id="y6Z1SUE2Pmp9UzVw0fYm-11" value="Kaleyra SFTP" style="strokeWidth=2;html=1;shape=mxgraph.flowchart.document2;whiteSpace=wrap;size=0.25;" vertex="1" parent="1">
          <mxGeometry x="700" y="330" width="100" height="60" as="geometry" />
        </mxCell>
        <mxCell id="y6Z1SUE2Pmp9UzVw0fYm-13" style="edgeStyle=orthogonalEdgeStyle;rounded=0;orthogonalLoop=1;jettySize=auto;html=1;entryX=0.62;entryY=0.833;entryDx=0;entryDy=0;entryPerimeter=0;dashed=1;strokeWidth=2;fillColor=#dae8fc;strokeColor=#6c8ebf;" edge="1" parent="1" source="y6Z1SUE2Pmp9UzVw0fYm-9" target="y6Z1SUE2Pmp9UzVw0fYm-11">
          <mxGeometry relative="1" as="geometry" />
        </mxCell>
        <mxCell id="y6Z1SUE2Pmp9UzVw0fYm-18" value="OneView Optin API" style="rounded=1;whiteSpace=wrap;html=1;" vertex="1" parent="1">
          <mxGeometry x="320" y="505" width="120" height="60" as="geometry" />
        </mxCell>
        <mxCell id="y6Z1SUE2Pmp9UzVw0fYm-20" style="edgeStyle=orthogonalEdgeStyle;rounded=0;orthogonalLoop=1;jettySize=auto;html=1;entryX=0.5;entryY=0;entryDx=0;entryDy=0;entryPerimeter=0;" edge="1" parent="1" source="y6Z1SUE2Pmp9UzVw0fYm-18" target="y6Z1SUE2Pmp9UzVw0fYm-10">
          <mxGeometry relative="1" as="geometry" />
        </mxCell>
        <mxCell id="y6Z1SUE2Pmp9UzVw0fYm-26" style="edgeStyle=orthogonalEdgeStyle;rounded=0;orthogonalLoop=1;jettySize=auto;html=1;entryX=0.5;entryY=1;entryDx=0;entryDy=0;fillColor=#ffe6cc;strokeColor=#d79b00;strokeWidth=2;" edge="1" parent="1" source="y6Z1SUE2Pmp9UzVw0fYm-24" target="y6Z1SUE2Pmp9UzVw0fYm-7">
          <mxGeometry relative="1" as="geometry" />
        </mxCell>
        <mxCell id="y6Z1SUE2Pmp9UzVw0fYm-24" value="&lt;span style=&quot;font-family: &amp;quot;JetBrains Mono&amp;quot;, monospace; font-size: 9.8pt;&quot;&gt;contact-optin-changed-event&lt;/span&gt;" style="shape=cylinder3;whiteSpace=wrap;html=1;boundedLbl=1;backgroundOutline=1;size=15;direction=south;" vertex="1" parent="1">
          <mxGeometry x="490" y="505" width="160" height="60" as="geometry" />
        </mxCell>
        <mxCell id="y6Z1SUE2Pmp9UzVw0fYm-25" style="edgeStyle=orthogonalEdgeStyle;rounded=0;orthogonalLoop=1;jettySize=auto;html=1;entryX=0.5;entryY=1;entryDx=0;entryDy=0;entryPerimeter=0;fillColor=#ffe6cc;strokeColor=#d79b00;strokeWidth=2;" edge="1" parent="1" source="y6Z1SUE2Pmp9UzVw0fYm-18" target="y6Z1SUE2Pmp9UzVw0fYm-24">
          <mxGeometry relative="1" as="geometry" />
        </mxCell>
      </root>
    </mxGraphModel>
  </diagram>
</mxfile>
